<?xml version="1.0" encoding="iso-8859-1"?>
<!-- Generator: Adobe Illustrator 16.0.4, SVG Export Plug-In . SVG Version: 6.00 Build 0)  -->
<!DOCTYPE svg PUBLIC "-//W3C//DTD SVG 1.1//EN" "http://www.w3.org/Graphics/SVG/1.1/DTD/svg11.dtd">
<svg version="1.1" id="Livello_1" xmlns="http://www.w3.org/2000/svg" xmlns:xlink="http://www.w3.org/1999/xlink" x="0px" y="0px"
	 width="796.688px" height="99px" viewBox="0 -0.651 796.688 99" style="enable-background:new 0 -0.651 796.688 99;"
	 xml:space="preserve">
<g>
	<path style="fill:#263248;" d="M12.419,57.229v-0.051H9.501v31.751h2.918V59.668h31.646c24.794,0,38.942-10.368,38.942-28.291
		c0-17.557-14.148-27.675-38.942-27.675H9.501V6.2h2.918V6.141h31.646c22.899,0,36.025,9.145,36.025,25.236
		c0,16.461-13.126,25.852-36.025,25.852"/>
	<path style="fill:#263248;" d="M135.222,88.929V3.702h2.917v85.227H135.222z"/>
	<path style="fill:#263248;" d="M225.792,6.141v82.788h-2.916V6.141h-35.003V3.702h72.922v2.439H225.792z"/>
	<path style="fill:#263248;" d="M379.22,14.674l-1.895,1.585C368.576,9.8,356.91,6.017,344.219,6.017
		c-27.272,0-49.586,18.044-49.586,40.237s22.313,40.357,49.586,40.357c12.691,0,24.357-3.9,33.106-10.36l2.042,1.585
		c-9.335,6.83-21.728,11.093-35.148,11.093c-28.728,0-52.356-19.263-52.356-42.676c0-23.409,23.628-42.551,52.356-42.551
		C357.639,3.702,369.889,7.848,379.22,14.674z"/>
	<path style="fill:#263248;" d="M511.512,88.929V47.106H438.15v41.823h-2.917V3.702h2.917v40.969h73.36V3.702h2.914v85.227H511.512z
		"/>
	<path style="fill:#263248;stroke:#263248;stroke-width:1.5;stroke-miterlimit:10;" d="M659.108,54.303
		c0,22.068-14.733,34.626-40.399,34.626c-25.671,0-40.395-12.558-40.395-34.626V3.702h2.91v50.601
		c0,20.483,13.715,32.187,37.483,32.187c23.771,0,37.486-11.704,37.486-32.187V3.702h2.913L659.108,54.303L659.108,54.303z"/>
	<path style="fill:#263248;stroke:#263248;stroke-width:1.5;stroke-miterlimit:10;" d="M724.793,57.21l-1.802-0.033v31.751h2.917
		v-29.26h31.651c24.789,0,38.938-10.368,38.938-28.291c0-17.557-14.147-27.675-38.938-27.675h-34.568V6.2h2.917V6.141h31.651
		c22.896,0,36.024,9.145,36.024,25.236c0,16.461-13.129,25.852-36.024,25.852L724.793,57.21z"/>
</g>
</svg>
