<?xml version="1.0" encoding="utf-8"?>
<!-- Generator: Adobe Illustrator 16.0.4, SVG Export Plug-In . SVG Version: 6.00 Build 0)  -->
<!DOCTYPE svg PUBLIC "-//W3C//DTD SVG 1.1//EN" "http://www.w3.org/Graphics/SVG/1.1/DTD/svg11.dtd">
<svg version="1.1" id="Livello_1" xmlns="http://www.w3.org/2000/svg" xmlns:xlink="http://www.w3.org/1999/xlink" x="0px" y="0px"
	 width="796.688px" height="424.348px" viewBox="0 0 796.688 424.348" enable-background="new 0 0 796.688 424.348"
	 xml:space="preserve">
<g>
	<path fill="#263248" d="M7.764,298.627v-0.051H4.846v31.752h2.918v-29.262H39.41c24.794,0,38.942-10.368,38.942-28.291
		c0-17.557-14.148-27.675-38.942-27.675H4.846v2.498h2.918v-0.06H39.41c22.899,0,36.025,9.146,36.025,25.236
		c0,16.461-13.126,25.852-36.025,25.852"/>
	<path fill="#263248" d="M130.567,330.329v-85.228h2.917v85.228H130.567z"/>
	<path fill="#263248" d="M221.137,247.54v82.789h-2.916V247.54h-35.003v-2.438h72.922v2.438H221.137z"/>
	<path fill="#263248" d="M374.565,256.073l-1.895,1.585c-8.749-6.459-20.415-10.241-33.106-10.241
		c-27.272,0-49.586,18.043-49.586,40.236s22.313,40.357,49.586,40.357c12.691,0,24.357-3.9,33.106-10.36l2.042,1.585
		c-9.335,6.83-21.728,11.094-35.148,11.094c-28.728,0-52.356-19.264-52.356-42.677c0-23.409,23.628-42.551,52.356-42.551
		C352.984,245.101,365.234,249.247,374.565,256.073z"/>
	<path fill="#263248" d="M506.856,330.329v-41.824h-73.361v41.824h-2.917v-85.228h2.917v40.969h73.359v-40.969h2.914v85.228H506.856
		z"/>
	<path fill="#263248" stroke="#263248" stroke-width="1.5" stroke-miterlimit="10" d="M654.453,295.702
		c0,22.068-14.733,34.627-40.399,34.627c-25.671,0-40.395-12.559-40.395-34.627v-50.601h2.909v50.601
		c0,20.483,13.716,32.188,37.483,32.188c23.771,0,37.486-11.704,37.486-32.188v-50.601h2.912L654.453,295.702L654.453,295.702z"/>
	<path fill="#263248" stroke="#263248" stroke-width="1.5" stroke-miterlimit="10" d="M720.138,298.609l-1.802-0.033v31.751h2.917
		v-29.26h31.65c24.789,0,38.938-10.368,38.938-28.291c0-17.557-14.147-27.675-38.938-27.675h-34.567v2.498h2.917v-0.06h31.65
		c22.896,0,36.024,9.146,36.024,25.236c0,16.461-13.129,25.852-36.024,25.852L720.138,298.609z"/>
</g>
<g>
	<path fill="#263248" d="M436.232,24.968c44.813,25.87,68.298,73.995,63.396,120.436l5.053,0.105
		c7.445-49.663-16.389-98.577-64.939-126.612C391.168-9.144,336.866-5.317,297.58,25.992l2.618,4.321
		C337.966,2.823,391.404-0.913,436.232,24.968z"/>
	<path fill="#263248" d="M409.126,71.921c29.833,17.225,45.46,49.265,42.193,80.17l3.365,0.073
		c4.962-33.058-10.917-65.623-43.229-84.281c-32.335-18.667-68.485-16.119-94.637,4.722l1.743,2.878
		C343.705,57.181,379.282,54.692,409.126,71.921z"/>
	<path fill="#263248" d="M382.163,118.623c18.561,10.716,28.283,30.652,26.251,49.878l2.091,0.048
		c3.091-20.568-6.794-40.833-26.892-52.439c-20.124-11.617-42.621-10.029-58.888,2.937l1.083,1.792
		C341.451,109.449,363.593,107.9,382.163,118.623z"/>
</g>
<g>
	<path fill="#263248" d="M25.116,389.9l-1.439,1.373c-1.62-1.238-3.9-1.98-6.21-1.98c-4.74,0-8.55,2.745-8.55,6.212
		c0,3.443,3.81,6.211,8.55,6.211c2.31,0,4.56-0.72,6.21-1.89l1.47,1.237c-2.07,1.463-4.89,2.431-7.8,2.431
		c-6.06,0-10.859-3.533-10.859-7.989c0-4.412,4.859-7.9,10.949-7.9C20.316,387.604,23.106,388.482,25.116,389.9z"/>
	<path fill="#263248" d="M54.967,395.527c0,4.434-4.86,7.967-10.979,7.967c-6.15,0-11.01-3.533-11.01-7.967
		c0-4.457,4.859-7.923,11.01-7.923C50.106,387.604,54.967,391.092,54.967,395.527z M35.407,395.527c0,3.466,3.899,6.234,8.58,6.234
		c4.68,0,8.52-2.769,8.52-6.234c0-3.467-3.84-6.212-8.52-6.212C39.307,389.315,35.407,392.06,35.407,395.527z"/>
	<path fill="#263248" d="M80.347,403.404l-12.6-12.648v12.648h-2.4v-15.755h2.49l12.6,12.672v-12.672h2.369v15.755H80.347z"/>
	<path fill="#263248" d="M110.196,403.404l-12.6-12.648v12.648h-2.4v-15.755h2.49l12.6,12.672v-12.672h2.369v15.755H110.196z"/>
	<path fill="#263248" d="M127.446,389.382v5.177h10.589v1.732h-10.589v5.401h12.239v1.711h-14.64v-15.755h14.25v1.733H127.446z"/>
	<path fill="#263248" d="M167.225,389.9l-1.439,1.373c-1.62-1.238-3.9-1.98-6.21-1.98c-4.74,0-8.55,2.745-8.55,6.212
		c0,3.443,3.81,6.211,8.55,6.211c2.31,0,4.56-0.72,6.21-1.89l1.47,1.237c-2.07,1.463-4.89,2.431-7.8,2.431
		c-6.06,0-10.859-3.533-10.859-7.989c0-4.412,4.859-7.9,10.949-7.9C162.425,387.604,165.215,388.482,167.225,389.9z"/>
	<path fill="#263248" d="M183.965,389.382v14.021h-2.399v-14.021h-6.84v-1.733h16.109v1.733H183.965z"/>
	<path fill="#263248" d="M200.315,403.404v-15.755h2.4v15.755H200.315z"/>
	<path fill="#263248" d="M230.075,403.404l-12.6-12.648v12.648h-2.4v-15.755h2.49l12.6,12.672v-12.672h2.369v15.755H230.075z"/>
	<path fill="#263248" d="M261.694,395.707v5.717c-2.07,1.237-4.979,2.07-7.8,2.07c-6.09,0-10.949-3.533-10.949-7.967
		c0-4.435,4.89-7.923,11.069-7.923c2.91,0,5.729,0.833,7.739,2.161l-1.38,1.35c-1.71-1.147-4.02-1.822-6.359-1.822
		c-4.8,0-8.64,2.768-8.64,6.234c0,3.488,3.87,6.257,8.67,6.257c1.89,0,3.899-0.495,5.52-1.328v-4.749H261.694z"/>
	<path fill="#263248" d="M295.624,387.649c5.19,0,8.189,1.936,8.189,5.289c0,3.488-2.999,5.492-8.189,5.492h-5.489v4.974h-2.4
		v-15.755H295.624z M290.135,396.697h5.399c3.78,0,5.97-1.261,5.97-3.714c0-2.386-2.189-3.601-5.97-3.601h-5.399V396.697z"/>
	<path fill="#263248" d="M316.204,389.382v5.177h10.589v1.732h-10.589v5.401h12.239v1.711h-14.64v-15.755h14.25v1.733H316.204z"/>
	<path fill="#263248" d="M359.343,395.527c0,4.434-4.86,7.967-10.979,7.967c-6.15,0-11.01-3.533-11.01-7.967
		c0-4.457,4.859-7.923,11.01-7.923C354.482,387.604,359.343,391.092,359.343,395.527z M339.783,395.527
		c0,3.466,3.899,6.234,8.58,6.234c4.68,0,8.52-2.769,8.52-6.234c0-3.467-3.84-6.212-8.52-6.212
		C343.683,389.315,339.783,392.06,339.783,395.527z"/>
	<path fill="#263248" d="M377.612,387.649c5.19,0,8.189,1.936,8.189,5.289c0,3.488-2.999,5.492-8.189,5.492h-5.489v4.974h-2.4
		v-15.755H377.612z M372.123,396.697h5.399c3.78,0,5.97-1.261,5.97-3.714c0-2.386-2.189-3.601-5.97-3.601h-5.399V396.697z"/>
	<path fill="#263248" d="M407.401,401.693v1.711h-11.609v-15.755h2.4v14.044H407.401z"/>
	<path fill="#263248" d="M419.702,389.382v5.177h10.589v1.732h-10.589v5.401h12.239v1.711h-14.64v-15.755h14.25v1.733H419.702z"/>
	<path fill="#263248" d="M463.44,389.382v14.021h-2.399v-14.021h-6.84v-1.733h16.109v1.733H463.44z"/>
	<path fill="#263248" d="M494.851,403.404v-6.932h-12.659v6.932h-2.4v-15.755h2.4v7.112h12.659v-7.112h2.4v15.755H494.851z"/>
	<path fill="#263248" d="M519,398.385c-0.45,0.022-0.93,0.045-1.41,0.045h-5.579v4.974h-2.4v-15.755h7.979
		c5.25,0,8.28,1.936,8.28,5.289c0,2.611-1.68,4.366-4.71,5.109l4.92,5.356h-2.73L519,398.385z M517.59,396.697
		c3.811,0,5.97-1.261,5.97-3.714c0-2.386-2.159-3.601-5.97-3.601h-5.579v7.314H517.59z"/>
	<path fill="#263248" d="M557.31,395.527c0,4.434-4.86,7.967-10.979,7.967c-6.15,0-11.01-3.533-11.01-7.967
		c0-4.457,4.859-7.923,11.01-7.923C552.449,387.604,557.31,391.092,557.31,395.527z M537.75,395.527c0,3.466,3.899,6.234,8.58,6.234
		c4.68,0,8.52-2.769,8.52-6.234c0-3.467-3.84-6.212-8.52-6.212C541.649,389.315,537.75,392.06,537.75,395.527z"/>
	<path fill="#263248" d="M584.849,396.921c0,4.097-3.3,6.572-8.789,6.572c-5.521,0-8.85-2.476-8.85-6.572v-9.272h2.399v9.272
		c0,3.062,2.46,4.84,6.45,4.84c3.989,0,6.39-1.778,6.39-4.84v-9.272h2.399V396.921z"/>
	<path fill="#263248" d="M613.499,395.707v5.717c-2.07,1.237-4.979,2.07-7.8,2.07c-6.09,0-10.949-3.533-10.949-7.967
		c0-4.435,4.89-7.923,11.069-7.923c2.91,0,5.729,0.833,7.739,2.161l-1.38,1.35c-1.71-1.147-4.02-1.822-6.359-1.822
		c-4.8,0-8.64,2.768-8.64,6.234c0,3.488,3.87,6.257,8.67,6.257c1.89,0,3.899-0.495,5.52-1.328v-4.749H613.499z"/>
	<path fill="#263248" d="M640.379,403.404v-6.932H627.72v6.932h-2.4v-15.755h2.4v7.112h12.659v-7.112h2.399v15.755H640.379z"/>
	<path fill="#263248" d="M682.258,389.044l-1.02,1.688c-1.89-0.945-4.11-1.328-5.79-1.328c-2.7,0-4.47,0.765-4.47,2.093
		c0,4.052,11.819,1.936,11.789,7.652c0,2.634-3.09,4.321-7.589,4.321c-3.061,0-6.061-0.99-8.04-2.408l1.08-1.62
		c1.95,1.418,4.62,2.228,6.989,2.228c3.03,0,4.92-0.923,4.92-2.431c0.03-4.141-11.789-1.936-11.789-7.584
		c0-2.477,2.909-4.074,7.26-4.074C678.028,387.582,680.519,388.167,682.258,389.044z"/>
	<path fill="#263248" d="M701.578,387.649c5.19,0,8.189,1.936,8.189,5.289c0,3.488-2.999,5.492-8.189,5.492h-5.489v4.974h-2.4
		v-15.755H701.578z M696.089,396.697h5.399c3.78,0,5.97-1.261,5.97-3.714c0-2.386-2.189-3.601-5.97-3.601h-5.399V396.697z"/>
	<path fill="#263248" d="M739.768,395.527c0,4.434-4.86,7.967-10.979,7.967c-6.15,0-11.01-3.533-11.01-7.967
		c0-4.457,4.859-7.923,11.01-7.923C734.907,387.604,739.768,391.092,739.768,395.527z M720.208,395.527
		c0,3.466,3.899,6.234,8.58,6.234c4.68,0,8.52-2.769,8.52-6.234c0-3.467-3.84-6.212-8.52-6.212
		C724.107,389.315,720.208,392.06,720.208,395.527z"/>
	<path fill="#263248" d="M759.537,398.385c-0.45,0.022-0.93,0.045-1.41,0.045h-5.579v4.974h-2.4v-15.755h7.979
		c5.25,0,8.28,1.936,8.28,5.289c0,2.611-1.68,4.366-4.71,5.109l4.92,5.356h-2.73L759.537,398.385z M758.127,396.697
		c3.811,0,5.97-1.261,5.97-3.714c0-2.386-2.159-3.601-5.97-3.601h-5.579v7.314H758.127z"/>
	<path fill="#263248" d="M784.227,389.382v14.021h-2.399v-14.021h-6.84v-1.733h16.109v1.733H784.227z"/>
</g>
</svg>
