<?xml version="1.0" encoding="iso-8859-1"?>
<!-- Generator: Adobe Illustrator 16.0.4, SVG Export Plug-In . SVG Version: 6.00 Build 0)  -->
<!DOCTYPE svg PUBLIC "-//W3C//DTD SVG 1.1//EN" "http://www.w3.org/Graphics/SVG/1.1/DTD/svg11.dtd">
<svg version="1.1" id="Livello_1" xmlns="http://www.w3.org/2000/svg" xmlns:xlink="http://www.w3.org/1999/xlink" x="0px" y="0px"
	 width="796.688px" height="177.697px" viewBox="0 0 796.688 177.697" style="enable-background:new 0 0 796.688 177.697;"
	 xml:space="preserve">
<g>
	<path style="fill:#263248;" d="M12.419,57.229v-0.051H9.501v31.751h2.918V59.668h31.646c24.794,0,38.942-10.368,38.942-28.291
		c0-17.557-14.148-27.675-38.942-27.675H9.501V6.2h2.918V6.141h31.646c22.899,0,36.025,9.145,36.025,25.236
		c0,16.461-13.126,25.852-36.025,25.852"/>
	<path style="fill:#263248;" d="M135.222,88.929V3.702h2.917v85.227H135.222z"/>
	<path style="fill:#263248;" d="M225.792,6.141v82.788h-2.916V6.141h-35.003V3.702h72.922v2.439H225.792z"/>
	<path style="fill:#263248;" d="M379.22,14.674l-1.895,1.585C368.576,9.8,356.91,6.017,344.219,6.017
		c-27.272,0-49.586,18.044-49.586,40.237s22.313,40.357,49.586,40.357c12.691,0,24.357-3.9,33.106-10.36l2.042,1.585
		c-9.335,6.83-21.728,11.093-35.148,11.093c-28.728,0-52.356-19.263-52.356-42.676c0-23.409,23.628-42.551,52.356-42.551
		C357.639,3.702,369.889,7.848,379.22,14.674z"/>
	<path style="fill:#263248;" d="M511.512,88.929V47.106H438.15v41.823h-2.917V3.702h2.917v40.969h73.361V3.702h2.914v85.227H511.512
		z"/>
	<path style="fill:#263248;stroke:#263248;stroke-width:1.5;stroke-miterlimit:10;" d="M659.108,54.303
		c0,22.068-14.733,34.626-40.399,34.626c-25.671,0-40.395-12.558-40.395-34.626V3.702h2.911v50.601
		c0,20.483,13.714,32.187,37.483,32.187c23.771,0,37.486-11.704,37.486-32.187V3.702h2.913V54.303z"/>
	<path style="fill:#263248;stroke:#263248;stroke-width:1.5;stroke-miterlimit:10;" d="M724.793,57.21l-1.802-0.033v31.751h2.917
		V59.668h31.652c24.789,0,38.937-10.368,38.937-28.291c0-17.557-14.147-27.675-38.937-27.675h-34.569V6.2h2.917V6.141h31.652
		c22.896,0,36.024,9.145,36.024,25.236c0,16.461-13.129,25.852-36.024,25.852L724.793,57.21z"/>
</g>
<g>
	<path style="fill:#263248;" d="M57.454,154.572l-1.44,1.465c-1.62-1.32-3.9-2.111-6.209-2.111c-4.74,0-8.55,2.928-8.55,6.623
		c0,3.674,3.81,6.625,8.55,6.625c2.31,0,4.56-0.768,6.209-2.016l1.47,1.32c-2.07,1.559-4.89,2.592-7.8,2.592
		c-6.06,0-10.86-3.768-10.86-8.521c0-4.703,4.86-8.424,10.95-8.424C52.654,152.125,55.444,153.06,57.454,154.572z"/>
	<path style="fill:#263248;" d="M87.304,160.574c0,4.729-4.86,8.496-10.979,8.496c-6.15,0-11.009-3.768-11.009-8.496
		c0-4.754,4.859-8.449,11.009-8.449C82.444,152.125,87.304,155.845,87.304,160.574z M67.745,160.574c0,3.695,3.9,6.648,8.58,6.648
		s8.52-2.953,8.52-6.648c0-3.697-3.84-6.625-8.52-6.625S67.745,156.876,67.745,160.574z"/>
	<path style="fill:#263248;" d="M112.685,168.974l-12.6-13.49v13.49h-2.4v-16.803h2.49l12.599,13.514v-13.514h2.37v16.803H112.685z"
		/>
	<path style="fill:#263248;" d="M142.536,168.974l-12.6-13.49v13.49h-2.4v-16.803h2.49l12.599,13.514v-13.514h2.37v16.803H142.536z"
		/>
	<path style="fill:#263248;" d="M159.787,154.021v5.52h10.59v1.848h-10.59v5.762h12.24v1.824h-14.64v-16.803h14.25v1.85H159.787z"/>
	<path style="fill:#263248;" d="M199.567,154.572l-1.44,1.465c-1.62-1.32-3.9-2.111-6.209-2.111c-4.74,0-8.55,2.928-8.55,6.623
		c0,3.674,3.81,6.625,8.55,6.625c2.31,0,4.56-0.768,6.209-2.016l1.47,1.32c-2.07,1.559-4.89,2.592-7.8,2.592
		c-6.06,0-10.86-3.768-10.86-8.521c0-4.703,4.86-8.424,10.95-8.424C194.767,152.125,197.557,153.06,199.567,154.572z"/>
	<path style="fill:#263248;" d="M216.308,154.021v14.953h-2.4v-14.953h-6.84v-1.85h16.109v1.85H216.308z"/>
	<path style="fill:#263248;" d="M254.768,152.171c5.19,0,8.19,2.064,8.19,5.641c0,3.721-3,5.857-8.19,5.857h-5.49v5.305h-2.4
		v-16.803H254.768z M249.278,161.822h5.4c3.78,0,5.97-1.346,5.97-3.961c0-2.545-2.19-3.84-5.97-3.84h-5.4V161.822z"/>
	<path style="fill:#263248;" d="M275.349,154.021v5.52h10.59v1.848h-10.59v5.762h12.24v1.824h-14.64v-16.803h14.25v1.85H275.349z"/>
	<path style="fill:#263248;" d="M318.488,160.574c0,4.729-4.86,8.496-10.979,8.496c-6.15,0-11.01-3.768-11.01-8.496
		c0-4.754,4.86-8.449,11.01-8.449C313.628,152.125,318.488,155.845,318.488,160.574z M298.929,160.574c0,3.695,3.9,6.648,8.58,6.648
		s8.52-2.953,8.52-6.648c0-3.697-3.84-6.625-8.52-6.625S298.929,156.876,298.929,160.574z"/>
	<path style="fill:#263248;" d="M336.759,152.171c5.19,0,8.19,2.064,8.19,5.641c0,3.721-3,5.857-8.19,5.857h-5.49v5.305h-2.4
		v-16.803H336.759z M331.27,161.822h5.4c3.78,0,5.97-1.346,5.97-3.961c0-2.545-2.19-3.84-5.97-3.84h-5.4V161.822z"/>
	<path style="fill:#263248;" d="M366.55,167.15v1.824h-11.61v-16.803h2.4v14.979H366.55z"/>
	<path style="fill:#263248;" d="M378.85,154.021v5.52h10.59v1.848h-10.59v5.762h12.24v1.824h-14.64v-16.803h14.25v1.85H378.85z"/>
	<path style="fill:#263248;" d="M422.59,154.021v14.953h-2.399v-14.953h-6.84v-1.85h16.109v1.85H422.59z"/>
	<path style="fill:#263248;" d="M454.001,168.974v-7.393h-12.659v7.393h-2.4v-16.803h2.4v7.586h12.659v-7.586h2.399v16.803H454.001z
		"/>
	<path style="fill:#263248;" d="M478.151,163.621c-0.45,0.025-0.93,0.049-1.41,0.049h-5.579v5.305h-2.4v-16.803h7.979
		c5.25,0,8.28,2.064,8.28,5.641c0,2.785-1.68,4.656-4.71,5.449l4.92,5.713h-2.73L478.151,163.621z M476.741,161.822
		c3.811,0,5.97-1.346,5.97-3.961c0-2.545-2.159-3.84-5.97-3.84h-5.579v7.801H476.741z"/>
	<path style="fill:#263248;" d="M516.462,160.574c0,4.729-4.86,8.496-10.979,8.496c-6.15,0-11.01-3.768-11.01-8.496
		c0-4.754,4.859-8.449,11.01-8.449C511.602,152.125,516.462,155.845,516.462,160.574z M496.902,160.574
		c0,3.695,3.899,6.648,8.58,6.648c4.68,0,8.52-2.953,8.52-6.648c0-3.697-3.84-6.625-8.52-6.625
		C500.802,153.949,496.902,156.876,496.902,160.574z"/>
	<path style="fill:#263248;" d="M544.002,162.062c0,4.367-3.3,7.008-8.789,7.008c-5.521,0-8.85-2.641-8.85-7.008v-9.891h2.399v9.891
		c0,3.264,2.46,5.16,6.45,5.16c3.989,0,6.39-1.896,6.39-5.16v-9.891h2.399V162.062z"/>
	<path style="fill:#263248;" d="M572.652,160.765v6.096c-2.07,1.32-4.979,2.209-7.8,2.209c-6.09,0-10.949-3.768-10.949-8.496
		s4.89-8.449,11.069-8.449c2.91,0,5.729,0.889,7.739,2.305l-1.38,1.439c-1.71-1.225-4.02-1.943-6.359-1.943
		c-4.8,0-8.64,2.951-8.64,6.648c0,3.719,3.87,6.672,8.67,6.672c1.89,0,3.899-0.527,5.52-1.416v-5.064H572.652z"/>
	<path style="fill:#263248;" d="M599.532,168.974v-7.393h-12.659v7.393h-2.4v-16.803h2.4v7.586h12.659v-7.586h2.399v16.803H599.532z
		"/>
	<path style="fill:#263248;" d="M641.413,153.66l-1.02,1.801c-1.89-1.008-4.11-1.416-5.79-1.416c-2.7,0-4.47,0.816-4.47,2.232
		c0,4.32,11.819,2.064,11.789,8.16c0,2.809-3.09,4.609-7.589,4.609c-3.061,0-6.061-1.057-8.04-2.568l1.08-1.729
		c1.95,1.512,4.62,2.375,6.989,2.375c3.03,0,4.92-0.982,4.92-2.592c0.03-4.416-11.789-2.064-11.789-8.088
		c0-2.641,2.909-4.344,7.26-4.344C637.184,152.101,639.674,152.724,641.413,153.66z"/>
	<path style="fill:#263248;" d="M660.733,152.171c5.19,0,8.189,2.064,8.189,5.641c0,3.721-2.999,5.857-8.189,5.857h-5.489v5.305
		h-2.4v-16.803H660.733z M655.244,161.822h5.399c3.78,0,5.97-1.346,5.97-3.961c0-2.545-2.189-3.84-5.97-3.84h-5.399V161.822z"/>
	<path style="fill:#263248;" d="M698.924,160.574c0,4.729-4.86,8.496-10.979,8.496c-6.15,0-11.01-3.768-11.01-8.496
		c0-4.754,4.859-8.449,11.01-8.449C694.063,152.125,698.924,155.845,698.924,160.574z M679.364,160.574
		c0,3.695,3.899,6.648,8.58,6.648c4.68,0,8.52-2.953,8.52-6.648c0-3.697-3.84-6.625-8.52-6.625
		C683.264,153.949,679.364,156.876,679.364,160.574z"/>
	<path style="fill:#263248;" d="M718.694,163.621c-0.45,0.025-0.93,0.049-1.41,0.049h-5.579v5.305h-2.4v-16.803h7.979
		c5.25,0,8.28,2.064,8.28,5.641c0,2.785-1.68,4.656-4.71,5.449l4.92,5.713h-2.73L718.694,163.621z M717.284,161.822
		c3.811,0,5.97-1.346,5.97-3.961c0-2.545-2.159-3.84-5.97-3.84h-5.579v7.801H717.284z"/>
	<path style="fill:#263248;" d="M743.385,154.021v14.953h-2.399v-14.953h-6.84v-1.85h16.109v1.85H743.385z"/>
</g>
</svg>
