<?xml version="1.0" encoding="iso-8859-1"?>
<!-- Generator: Adobe Illustrator 16.0.4, SVG Export Plug-In . SVG Version: 6.00 Build 0)  -->
<!DOCTYPE svg PUBLIC "-//W3C//DTD SVG 1.1//EN" "http://www.w3.org/Graphics/SVG/1.1/DTD/svg11.dtd">
<svg version="1.1" id="Livello_1" xmlns="http://www.w3.org/2000/svg" xmlns:xlink="http://www.w3.org/1999/xlink" x="0px" y="0px"
	 width="45.948px" height="46.902px" viewBox="0 0 45.948 46.902" style="enable-background:new 0 0 45.948 46.902;"
	 xml:space="preserve">
<g style="display:none;">
	<path style="fill:#263248;" d="M9.201,73.574c0.502-9.761,5.881-25.616,13.677-35.594c4.247-5.438,6.202-10.736,6.202-13.951
		c0-11.167-8.946-20.219-19.981-20.219l0,0c-11.035,0-19.981,9.053-19.981,20.219c0,3.214,1.954,8.513,6.202,13.951
		C3.116,47.958,8.494,63.813,8.997,73.574H9.201z"/>
	<path d="M9.927,74.339H8.271l-0.038-0.725C7.749,64.213,2.561,48.49-5.283,38.45c-4.692-6.006-6.364-11.387-6.364-14.421
		c0-11.571,9.306-20.984,20.746-20.984c11.438,0,20.746,9.413,20.746,20.984c0,3.034-1.672,8.415-6.364,14.421
		C15.636,48.49,10.448,64.213,9.964,73.614L9.927,74.339L9.927,74.339z M9.099,4.574c-10.596,0-19.216,8.727-19.216,19.455
		c0,2.652,1.582,7.773,6.039,13.479C2.585,46.039,7.377,58.582,9.099,68.113c1.721-9.531,6.513-22.074,13.177-30.605
		c4.458-5.706,6.039-10.827,6.039-13.479C28.314,13.301,19.694,4.574,9.099,4.574L9.099,4.574z"/>
</g>
<g style="display:none;">
	<path style="display:inline;fill:#FFFFFF;" d="M9.1,13.796c5.943-0.001,11.042,3.438,13.221,8.338l0.509-0.28
		c-2.112-5.367-7.291-8.863-13.729-8.864c-6.441,0.001-11.623,3.5-13.732,8.869l0.509,0.28C-1.946,17.237,3.155,13.796,9.1,13.796z"
		/>
	<path style="display:inline;fill:#FFFFFF;" d="M9.101,20.023c3.956,0,7.351,2.29,8.801,5.551l0.339-0.186
		c-1.405-3.572-4.854-5.9-9.14-5.9c-4.289,0-7.738,2.33-9.142,5.904l0.339,0.186C1.747,22.313,5.143,20.023,9.101,20.023z"/>
	<path style="display:inline;fill:#FFFFFF;" d="M9.101,26.216c2.461,0,4.572,1.425,5.475,3.454l0.211-0.116
		c-0.874-2.223-3.021-3.671-5.686-3.671c-2.669,0-4.815,1.45-5.688,3.674l0.21,0.116C4.525,27.642,6.638,26.216,9.101,26.216z"/>
</g>
<path style="display:none;fill:#FFFFFF;stroke:#FFFFFF;stroke-width:1.5;stroke-miterlimit:10;" d="M17.476,27.07
	c0,4.517-3.016,7.088-8.27,7.088s-8.269-2.571-8.269-7.088V16.712h0.596V27.07c0,4.193,2.807,6.589,7.672,6.589
	c4.866,0,7.674-2.396,7.674-6.589V16.712h0.596V27.07z"/>
<g>
	<path style="fill:#263248;" d="M40.818,16.671l0.408,0.292h0.381v-0.732l1.197-0.116l1.14,0.848h1.872l0.132-0.12
		c-0.188-0.631-0.399-1.251-0.636-1.858l-1.221,0.021l-0.612-0.673L43.36,13.25l-0.628,0.342l-0.337,1.323l-0.906-0.965
		l-0.037-0.912l-0.874-0.753l-0.322-0.321h-1.015l0.319,0.904l1.221,0.682l0.213,0.225l-0.266,0.133l0.013,0.717l-0.596,0.249
		l-0.508-0.111l-0.318-0.45l0.828,0.044l0.223-0.301l-1.83-1.234l-0.141-0.526l-0.744,0.673l-0.753-0.155l-1.146,1.492l-0.227,0.584
		l-0.734,0.066l-1.086,0.007l-0.65-0.304l-0.191-1.29l0.234-0.615l1.105-0.242l1.205,0.242l0.147-0.667l-0.513-0.121l0.175-1.039
		l1.214-0.189l0.848-1.198l0.876-0.147l0.79,0.117h0.292l-0.16-1.125L38.12,8.771L37.781,7.93l-0.559-0.078l-0.104-0.576
		l0.455-0.496l1.082-0.424l0.278-0.498C34.8,2.217,29.381,0,23.451,0c-5.146,0-9.907,1.67-13.779,4.491l1.184-0.009l0.527,0.292
		l0.993,0.214l0.078,0.391l1.579,0.058L13.819,4.93l-1.403-0.04l0.33-0.311l-0.115-0.371h-1.268l1.383-1.033h1.325l0.624,0.858
		l1.034,0.058l0.623-0.604l0.468,0.233L15.96,4.559c0,0-1.188,0.021-1.129,0.021c0.058,0,0.097,0.817,0.097,0.817l1.441-0.04
		l0.156-0.389l0.994-0.059l0.117-0.584l-0.584-0.099l0.194-0.526l0.447-0.136l1.559,0.077l-0.858,0.78l0.139,0.604l0.896,0.137
		l-0.059-1.091l0.857-0.449l1.521-0.175l2.202,0.975v0.838l0.701,0.175l-0.353,0.663h-0.993L23.01,6.858l-2.27-0.535l1.786-0.951
		l-0.68-0.578l-1.54,0.195l-0.134,0.14l-0.006-0.002l-0.022,0.032L19.7,5.62l-0.733,0.06l0.059,0.365l0.256,0.106l-0.01,0.12
		l-0.597,0.084l-0.044,0.346l-0.57,0.03l-0.102-0.688l-1.024,0.311l-2.09,1.224L15.08,8.44l0.584,0.381l1.168,0.161v1.329
		l0.541-0.087l0.497-1.038l1.243-0.394V7.199l0.691-0.522l1.67,0.395l-0.117,1.053h0.449l1.229-0.604l0.059,1.382l0.895,0.545
		l-0.037,0.82l-0.857,0.292l0.059,0.271l1.032,0.47l-0.021,0.565l-0.298,0.025c-0.001-0.009-0.002-0.015-0.002-0.015l-1.305-0.402
		l-0.055-0.418h-0.001l0.382-0.262v-0.382l-0.41-0.103l-0.102,0.352l-0.719,0.111l-0.072-0.023v0.036l-0.248,0.038l-0.203-0.41
		l-0.234-0.103h-0.512l-0.232,0.191v0.424l0.438,0.146l0.432,0.061l-0.097,0.043l-0.395,0.437l-0.173-0.218l-0.383-0.101
		l-1.038,0.977l0.136,0.111l-1.533,0.85l-1.443,1.501L15.998,15.4l-1.446,0.951l-0.717,0.721l0.08,1.441L12.92,18.05l0.007-0.843
		l-2.766,0.001l-1.432,0.725L8.107,19.08L7.86,19.99l0.403,0.882l1.129,0.138l1.793-1.199l0.157,0.594l-0.547,1.034l1.366,0.233
		l0.136,2.108l1.871,0.318l1.189-1.374l1.442,0.293l0.507,0.705l1.384-0.082l0.038-0.409l0.761,0.369l0.857,1.344l1.48,0.021
		l0.547,0.957l0.077,1.168l1.638,0.623l2.064,0.021l0.605,0.992l0.915,0.294l-0.175,0.82l-1.003,1.274l-0.294,2.823l-0.906,0.716
		l-1.344-0.04l-0.446,0.779l0.332,1.463l-1.463,1.871l-0.468,0.858l-1.393,0.669l-0.918,0.139l-0.037,0.389l0.644,0.184
		l-0.078,0.419l-0.575,0.555l0.35,0.441l0.693,0.02l-0.039,0.534l-0.185,0.527l-0.06,0.429l1.026,0.864l-0.137,0.448l-1.396-0.025
		l-1.388-1.212l-1.083-1.901l0.152-1.835l-0.819-1.092l0.331-1.851l-0.486-0.135v-4.016c0,0-1.364-1.034-1.443-1.034
		c-0.078,0-0.722-0.175-0.722-0.175l-0.136-0.758l-1.773-2.222l0.176-0.799l0.058-1.306l1.229-0.858l-0.176-1.463l-1.792-0.135
		l-1.403-1.598l-0.995-0.275l-0.642-0.119l0.078-0.584l-0.819-0.116v0.332l-2.047-0.511l-0.824-1.26l0.335-0.611l-1.296-1.891
		l-0.222-1.384H3.567l0.174,1.344l0.896,1.383L4.54,19.642l-0.759-0.117l-0.935-1.594v-1.854l-0.975-0.468v-1.334
		C0.668,17.094,0,20.195,0,23.451c0,12.931,10.52,23.451,23.451,23.451c7.331,0,13.885-3.383,18.188-8.668h-0.774v-1.559
		L39.97,35.47v-1.875l-0.683-0.682l-0.061-0.78l0.869-1.657l-1.645-2.905l0.193-1.971l-1.481-0.152l-0.546-0.546h-0.994
		l-0.506,0.468h-1.755l-0.059,0.156h-0.976l-2.239-2.552l0.018-1.988l0.37-0.135l0.138-0.761h-0.525l-0.216-0.798l2.591-1.87v-1.326
		l1.268-0.704l0.516,0.051h1.042l0.817-0.438l2.631-0.205v1.345L40.818,16.671z M34.24,8.31l0.215-0.331l0.77-0.156l0.193,0.936
		l0.409,0.662L36.1,9.734l0.496,0.193l-0.468,0.557l-0.906,0.086h-0.681l0.077-0.808l0.566-0.118l-0.049-0.38l-0.528-0.331
		L34.24,8.681V8.31L34.24,8.31z M32.975,9.771l0.468-0.75l0.632-0.146l0.449,0.194l-0.042,0.507l-0.964,0.682h-0.544L32.975,9.771
		L32.975,9.771z M20.233,12.656l-0.489,0.041l0.027-0.34l0.218-0.272l0.294,0.23L20.233,12.656z M21.945,12.057l-0.334,0.028
		l-0.066,0.322l-0.258,0.16l-0.412,0.035c-0.014-0.097-0.021-0.17-0.021-0.17h-0.16v-0.347h0.672l0.139-0.358l0.268-0.005
		l0.305,0.063L21.945,12.057z"/>
</g>
</svg>
