<?xml version="1.0" encoding="iso-8859-1"?>
<!-- Generator: Adobe Illustrator 16.0.4, SVG Export Plug-In . SVG Version: 6.00 Build 0)  -->
<!DOCTYPE svg PUBLIC "-//W3C//DTD SVG 1.1//EN" "http://www.w3.org/Graphics/SVG/1.1/DTD/svg11.dtd">
<svg version="1.1" id="Livello_1" xmlns="http://www.w3.org/2000/svg" xmlns:xlink="http://www.w3.org/1999/xlink" x="0px" y="0px"
	 width="81.401px" height="139.871px" viewBox="0 0 81.401 139.871" style="enable-background:new 0 0 81.401 139.871;"
	 xml:space="preserve">
<g>
	<path style="fill:#263248;" d="M40.901,138.371c0.985-19.152,11.538-50.257,26.833-69.833c8.333-10.667,12.167-21.062,12.167-27.37
		c0-21.907-17.551-39.667-39.2-39.667H40.7C19.051,1.5,1.5,19.26,1.5,41.167c0,6.308,3.834,16.703,12.167,27.37
		c15.295,19.576,25.848,50.681,26.833,69.833H40.901z"/>
	<path d="M42.326,139.871h-3.251l-0.073-1.424c-0.949-18.441-11.127-49.288-26.517-68.987C3.28,57.678,0,47.119,0,41.167
		C0,18.467,18.258,0,40.7,0s40.701,18.467,40.701,41.167c0,5.952-3.28,16.511-12.485,28.293
		c-15.39,19.699-25.567,50.545-26.517,68.987L42.326,139.871L42.326,139.871z M40.701,3C19.913,3,3,20.121,3,41.167
		c0,5.203,3.104,15.251,11.849,26.446c13.074,16.734,22.476,41.346,25.852,60.042c3.377-18.697,12.778-43.308,25.853-60.042
		c8.745-11.195,11.849-21.243,11.849-26.446C78.401,20.121,61.489,3,40.701,3L40.701,3z"/>
</g>
<g>
	<path style="fill:#FFFFFF;" d="M40.704,21.093c11.66-0.001,21.664,6.745,25.939,16.359l0.998-0.549
		c-4.143-10.529-14.304-17.389-26.937-17.39c-12.637,0-22.802,6.865-26.941,17.4l0.998,0.548
		C19.034,27.843,29.041,21.093,40.704,21.093z"/>
	<path style="fill:#FFFFFF;" d="M40.705,33.309c7.761,0,14.421,4.492,17.265,10.89l0.665-0.365
		c-2.756-7.009-9.523-11.575-17.93-11.576c-8.414,0.001-15.18,4.57-17.935,11.583l0.664,0.365
		C26.278,37.803,32.939,33.309,40.705,33.309z"/>
	<path style="fill:#FFFFFF;" d="M40.705,45.459c4.829,0,8.971,2.795,10.742,6.776l0.414-0.227
		c-1.714-4.362-5.927-7.203-11.156-7.203c-5.236,0-9.446,2.844-11.16,7.207l0.413,0.228C31.727,48.256,35.872,45.459,40.705,45.459z
		"/>
</g>
</svg>
