<?xml version="1.0" encoding="iso-8859-1"?>
<!-- Generator: Adobe Illustrator 16.0.4, SVG Export Plug-In . SVG Version: 6.00 Build 0)  -->
<!DOCTYPE svg PUBLIC "-//W3C//DTD SVG 1.1//EN" "http://www.w3.org/Graphics/SVG/1.1/DTD/svg11.dtd">
<svg version="1.1" id="Livello_1" xmlns="http://www.w3.org/2000/svg" xmlns:xlink="http://www.w3.org/1999/xlink" x="0px" y="0px"
	 width="39.963px" height="69.764px" viewBox="0 0 39.963 69.764" style="enable-background:new 0 0 39.963 69.764;"
	 xml:space="preserve">
<g>
	<path style="fill:#263248;" d="M20.083,69.764c0.502-9.761,5.881-25.616,13.677-35.594c4.247-5.438,6.202-10.736,6.202-13.951
		C39.963,9.053,31.017,0,19.981,0l0,0C8.946,0,0,9.053,0,20.219c0,3.214,1.954,8.513,6.202,13.951
		c7.796,9.978,13.175,25.833,13.677,35.594H20.083z"/>
	<path style="display:none;" d="M20.81,70.529h-1.656l-0.038-0.725c-0.484-9.4-5.672-25.124-13.516-35.164
		c-4.692-6.006-6.364-11.387-6.364-14.421c0-11.571,9.306-20.984,20.746-20.984c11.438,0,20.746,9.413,20.746,20.984
		c0,3.034-1.672,8.415-6.364,14.421c-7.844,10.041-13.032,25.764-13.516,35.164L20.81,70.529L20.81,70.529z M19.981,0.765
		c-10.596,0-19.216,8.727-19.216,19.455c0,2.652,1.582,7.773,6.039,13.479c6.664,8.531,11.456,21.074,13.177,30.605
		c1.721-9.531,6.513-22.074,13.177-30.605c4.458-5.706,6.039-10.827,6.039-13.479C39.197,9.491,30.577,0.765,19.981,0.765
		L19.981,0.765z"/>
</g>
<g style="display:none;">
	<path style="display:inline;fill:#FFFFFF;" d="M19.983,9.987c5.943-0.001,11.042,3.438,13.221,8.338l0.509-0.28
		c-2.112-5.367-7.291-8.863-13.729-8.864c-6.441,0.001-11.623,3.5-13.732,8.869l0.509,0.28C8.937,13.427,14.038,9.987,19.983,9.987z
		"/>
	<path style="display:inline;fill:#FFFFFF;" d="M19.983,16.213c3.956,0,7.351,2.29,8.801,5.551l0.339-0.186
		c-1.405-3.572-4.854-5.9-9.14-5.9c-4.289,0-7.738,2.33-9.142,5.904l0.339,0.186C12.63,18.504,16.025,16.213,19.983,16.213z"/>
	<path style="display:inline;fill:#FFFFFF;" d="M19.983,22.407c2.461,0,4.572,1.425,5.475,3.454l0.211-0.116
		c-0.874-2.223-3.021-3.671-5.686-3.671c-2.669,0-4.815,1.45-5.688,3.674l0.21,0.116C15.408,23.833,17.521,22.407,19.983,22.407z"/>
</g>
<path style="fill:#FFFFFF;stroke:#FFFFFF;stroke-width:1.5;stroke-miterlimit:10;" d="M28.358,23.26c0,4.517-3.016,7.088-8.27,7.088
	s-8.269-2.571-8.269-7.088V12.902h0.596V23.26c0,4.193,2.807,6.589,7.672,6.589c4.866,0,7.674-2.396,7.674-6.589V12.902h0.596V23.26
	z"/>
</svg>
