<?xml version="1.0" encoding="iso-8859-1"?>
<!-- Generator: Adobe Illustrator 16.0.4, SVG Export Plug-In . SVG Version: 6.00 Build 0)  -->
<!DOCTYPE svg PUBLIC "-//W3C//DTD SVG 1.1//EN" "http://www.w3.org/Graphics/SVG/1.1/DTD/svg11.dtd">
<svg version="1.1" id="Livello_1" xmlns="http://www.w3.org/2000/svg" xmlns:xlink="http://www.w3.org/1999/xlink" x="0px" y="0px"
	 width="39.963px" height="43.75px" viewBox="0 0 39.963 43.75" style="enable-background:new 0 0 39.963 43.75;"
	 xml:space="preserve">
<g style="display:none;">
	<path style="fill:#263248;" d="M20.083,71.498c0.502-9.761,5.881-25.616,13.677-35.594c4.247-5.438,6.202-10.736,6.202-13.951
		c0-11.167-8.946-20.219-19.981-20.219l0,0C8.946,1.733,0,10.786,0,21.953c0,3.214,1.954,8.513,6.202,13.951
		c7.796,9.978,13.175,25.833,13.677,35.594H20.083z"/>
	<path d="M20.81,72.263h-1.656l-0.038-0.725c-0.484-9.4-5.672-25.124-13.516-35.164c-4.692-6.006-6.364-11.387-6.364-14.421
		c0-11.571,9.306-20.984,20.746-20.984c11.438,0,20.746,9.413,20.746,20.984c0,3.034-1.672,8.415-6.364,14.421
		c-7.844,10.041-13.032,25.764-13.516,35.164L20.81,72.263L20.81,72.263z M19.981,2.498c-10.596,0-19.216,8.727-19.216,19.455
		c0,2.652,1.582,7.773,6.039,13.479c6.664,8.531,11.456,21.074,13.177,30.605c1.721-9.531,6.513-22.074,13.177-30.605
		c4.458-5.706,6.039-10.827,6.039-13.479C39.197,11.225,30.577,2.498,19.981,2.498L19.981,2.498z"/>
</g>
<g style="display:none;">
	<path style="display:inline;fill:#FFFFFF;" d="M19.983,11.72c5.943-0.001,11.042,3.438,13.221,8.338l0.509-0.28
		c-2.112-5.367-7.291-8.863-13.729-8.864c-6.441,0.001-11.623,3.5-13.732,8.869l0.509,0.28C8.937,15.161,14.038,11.72,19.983,11.72z
		"/>
	<path style="display:inline;fill:#FFFFFF;" d="M19.983,17.947c3.956,0,7.351,2.29,8.801,5.551l0.339-0.186
		c-1.405-3.572-4.854-5.9-9.14-5.9c-4.289,0-7.738,2.33-9.142,5.904l0.339,0.186C12.63,20.237,16.025,17.947,19.983,17.947z"/>
	<path style="display:inline;fill:#FFFFFF;" d="M19.983,24.14c2.461,0,4.572,1.425,5.475,3.454l0.211-0.116
		c-0.874-2.223-3.021-3.671-5.686-3.671c-2.669,0-4.815,1.45-5.688,3.674l0.21,0.116C15.408,25.566,17.521,24.14,19.983,24.14z"/>
</g>
<path style="display:none;fill:#FFFFFF;stroke:#FFFFFF;stroke-width:1.5;stroke-miterlimit:10;" d="M28.358,24.994
	c0,4.517-3.016,7.088-8.27,7.088s-8.269-2.571-8.269-7.088V14.636h0.596v10.358c0,4.193,2.807,6.589,7.672,6.589
	c4.866,0,7.674-2.396,7.674-6.589V14.636h0.596V24.994z"/>
<g>
	<path style="fill:#263248;stroke:#263248;stroke-miterlimit:10;" d="M26.313,11.376c8.425,4.864,12.841,13.912,11.919,22.644
		l0.949,0.019c1.4-9.337-3.082-18.533-12.209-23.805C17.839,4.963,7.629,5.683,0.243,11.569l0.492,0.812
		C7.836,7.213,17.884,6.511,26.313,11.376z"/>
	<path style="fill:#263248;stroke:#263248;stroke-miterlimit:10;" d="M21.216,20.205c5.607,3.239,8.547,9.262,7.932,15.073
		l0.633,0.014c0.934-6.216-2.052-12.339-8.128-15.846c-6.079-3.51-12.875-3.03-17.793,0.888l0.328,0.542
		C8.916,17.433,15.604,16.965,21.216,20.205z"/>
	<path style="fill:#263248;stroke:#263248;stroke-miterlimit:10;" d="M16.146,28.985c3.489,2.015,5.317,5.764,4.937,9.378
		l0.393,0.009c0.58-3.867-1.277-7.678-5.057-9.86c-3.782-2.184-8.013-1.885-11.071,0.552l0.203,0.338
		C8.492,27.26,12.655,26.969,16.146,28.985z"/>
</g>
</svg>
